<?xml version="1.0" encoding="UTF-8" standalone="no"?>
<!-- Created with Inkscape (http://www.inkscape.org/) -->

<svg
   xmlns:dc="http://purl.org/dc/elements/1.1/"
   xmlns:cc="http://creativecommons.org/ns#"
   xmlns:rdf="http://www.w3.org/1999/02/22-rdf-syntax-ns#"
   xmlns:svg="http://www.w3.org/2000/svg"
   xmlns="http://www.w3.org/2000/svg"
   xmlns:sodipodi="http://sodipodi.sourceforge.net/DTD/sodipodi-0.dtd"
   xmlns:inkscape="http://www.inkscape.org/namespaces/inkscape"
   width="77.832603mm"
   height="77.673882mm"
   viewBox="0 0 77.832604 77.673882"
   version="1.1"
   id="svg8"
   inkscape:version="0.92.3 (2405546, 2018-03-11)"
   sodipodi:docname="logo.svg">
  <defs
     id="defs2" />
  <sodipodi:namedview
     id="base"
     pagecolor="#ffffff"
     bordercolor="#666666"
     borderopacity="1.0"
     inkscape:pageopacity="0.0"
     inkscape:pageshadow="2"
     inkscape:zoom="1.979899"
     inkscape:cx="107.20308"
     inkscape:cy="131.51568"
     inkscape:document-units="mm"
     inkscape:current-layer="g117"
     showgrid="false"
     inkscape:window-width="1920"
     inkscape:window-height="1017"
     inkscape:window-x="-8"
     inkscape:window-y="-8"
     inkscape:window-maximized="1"
     fit-margin-top="0"
     fit-margin-left="0"
     fit-margin-right="0"
     fit-margin-bottom="0" />
  <metadata
     id="metadata5">
    <rdf:RDF>
      <cc:Work
         rdf:about="">
        <dc:format>image/svg+xml</dc:format>
        <dc:type
           rdf:resource="http://purl.org/dc/dcmitype/StillImage" />
        <dc:title></dc:title>
      </cc:Work>
    </rdf:RDF>
  </metadata>
  <g
     inkscape:label="Layer 1"
     inkscape:groupmode="layer"
     id="layer1"
     transform="translate(-20.385199,-114.3007)">
    <g
       id="g117"
       transform="translate(-8.3154762,-7.3705357)">
      <path
         sodipodi:nodetypes="ccsscccccsccsccccccsccsccsccsc"
         inkscape:connector-curvature="0"
         id="path4738"
         style="font-style:normal;font-variant:normal;font-weight:bold;font-stretch:normal;font-size:45.86111069px;line-height:1.25;font-family:Rubik;-inkscape-font-specification:'Rubik, Bold';font-variant-ligatures:normal;font-variant-caps:normal;font-variant-numeric:normal;font-feature-settings:normal;text-align:start;letter-spacing:0px;word-spacing:0px;writing-mode:lr-tb;text-anchor:start;fill:#2185df;fill-opacity:1;stroke:none;stroke-width:0.37167326"
         d="m 46.369253,185.42938 c 0,0.47244 -0.171796,0.88046 -0.515388,1.22404 -0.343593,0.3436 -0.751607,0.51539 -1.224043,0.51539 h -4.413178 c -0.472436,0 -0.88045,-0.17179 -1.224042,-0.51539 -0.343592,-0.34358 -0.515389,-0.7516 -0.515389,-1.22404 -16.933433,-21.44245 -7.912561,-34.09412 -2.233084,-38.46289 1.823072,-1.75147 1.264591,-0.94719 3.269045,-2.19755 0.644237,-0.51539 1.524687,-0.94488 2.64135,-1.28847 1.15962,-0.38655 2.619885,-0.57982 4.380795,-0.57982 4.080151,0 7.451639,1.24552 10.114463,3.73655 2.705781,2.49105 4.144572,6.16318 4.316374,11.0164 0.04299,0.42949 0.06448,1.28847 0.06448,2.57694 0,1.33142 -0.02149,2.21187 -0.06448,2.64135 -0.171802,4.85323 -1.589115,8.54683 -4.251938,11.08082 -2.662834,2.49104 -6.0558,3.73656 -10.178899,3.73656 z m 3.065118,-26.93827 c -0.128843,-1.67501 -0.665706,-3.0279 -1.610588,-4.05866 -0.901923,-1.03078 -2.297762,-1.54617 -4.187516,-1.54617 -1.760909,0 -3.113799,0.49391 -4.058671,1.48174 -0.901925,0.98781 -1.460261,2.21185 -1.67501,3.67212 -0.08588,0.85898 -0.128815,1.61059 -0.128815,2.25482 0,0.64423 0.04294,1.39584 0.128815,2.25483 0.171801,1.4173 0.730138,2.64134 1.67501,3.67212 0.944872,0.98783 2.297762,1.48174 4.058671,1.48174 1.889754,0 3.285593,-0.51539 4.187516,-1.54616 0.944882,-1.03077 1.481745,-2.38366 1.610588,-4.05867 0.08588,-0.85898 0.128815,-1.46027 0.128815,-1.80386 0,-0.34359 -0.04294,-0.94488 -0.128815,-1.80385 z" />
      <path
         style="font-style:normal;font-variant:normal;font-weight:bold;font-stretch:normal;font-size:45.86111069px;line-height:1.25;font-family:Rubik;-inkscape-font-specification:'Rubik, Bold';font-variant-ligatures:normal;font-variant-caps:normal;font-variant-numeric:normal;font-feature-settings:normal;text-align:start;letter-spacing:0px;word-spacing:0px;writing-mode:lr-tb;text-anchor:start;fill:#2185df;fill-opacity:1;stroke:none;stroke-width:0.26458332"
         d="m 72.667295,195.72608 c 0,0.33632 -0.122297,0.62677 -0.36689,0.87136 -0.244594,0.2446 -0.535047,0.36689 -0.87136,0.36689 h -7.649387 c -0.336313,0 -0.626767,-0.12229 -0.87136,-0.36689 -0.244593,-0.24459 -0.36689,-0.53504 -0.36689,-0.87136 v -34.79552 c 0,-0.33632 0.122297,-0.62677 0.36689,-0.87136 0.244593,-0.2446 0.535047,-0.36689 0.87136,-0.36689 h 7.649387 c 0.336313,0 0.626766,0.12229 0.87136,0.36689 0.244593,0.24459 0.36689,0.53504 0.36689,0.87136 z"
         id="path4740"
         inkscape:connector-curvature="0" />
      <circle
         style="fill:#2185df;fill-opacity:1;stroke-width:0.26458332"
         id="path4752"
         cx="67.604355"
         cy="143.64131"
         r="7.6505904" />
      <path
         d="m 88.864696,135.887 c 0,-0.47244 0.171796,-0.88046 0.515388,-1.22404 0.343593,-0.3436 0.751607,-0.51539 1.224043,-0.51539 h 4.413178 c 0.472436,0 0.88045,0.17179 1.224042,0.51539 0.343592,0.34358 0.515389,0.7516 0.515389,1.22404 16.933434,21.44245 7.912564,34.09412 2.233084,38.46289 -1.823072,1.75147 -1.264591,0.94719 -3.269045,2.19755 -0.644237,0.51539 -1.524687,0.94488 -2.64135,1.28847 -1.15962,0.38655 -2.619885,0.57982 -4.380795,0.57982 -4.080151,0 -7.451639,-1.24552 -10.114463,-3.73655 -2.705781,-2.49105 -4.144572,-6.16318 -4.316374,-11.0164 -0.04299,-0.42949 -0.06448,-1.28847 -0.06448,-2.57694 0,-1.33142 0.02149,-2.21187 0.06448,-2.64135 0.171802,-4.85323 1.589115,-8.54683 4.251938,-11.08082 2.662834,-2.49104 6.0558,-3.73656 10.178899,-3.73656 z m -3.065118,26.93827 c 0.128843,1.67501 0.665706,3.0279 1.610588,4.05866 0.901923,1.03078 2.297762,1.54617 4.187516,1.54617 1.760909,0 3.113799,-0.49391 4.058671,-1.48174 0.901925,-0.98781 1.460261,-2.21185 1.67501,-3.67212 0.08588,-0.85898 0.128815,-1.61059 0.128815,-2.25482 0,-0.64423 -0.04294,-1.39584 -0.128815,-2.25483 -0.171801,-1.4173 -0.730138,-2.64134 -1.67501,-3.67212 -0.944872,-0.98783 -2.297762,-1.48174 -4.058671,-1.48174 -1.889754,0 -3.285593,0.51539 -4.187516,1.54616 -0.944882,1.03077 -1.481745,2.38366 -1.610588,4.05867 -0.08588,0.85898 -0.128815,1.46027 -0.128815,1.80386 0,0.34359 0.04294,0.94488 0.128815,1.80385 z"
         style="font-style:normal;font-variant:normal;font-weight:bold;font-stretch:normal;font-size:45.86111069px;line-height:1.25;font-family:Rubik;-inkscape-font-specification:'Rubik, Bold';font-variant-ligatures:normal;font-variant-caps:normal;font-variant-numeric:normal;font-feature-settings:normal;text-align:start;letter-spacing:0px;word-spacing:0px;writing-mode:lr-tb;text-anchor:start;fill:#2185df;fill-opacity:1;stroke:none;stroke-width:0.37167326"
         id="path4754"
         inkscape:connector-curvature="0"
         sodipodi:nodetypes="ccsscccccsccsccccccsccsccsccsc" />
      <path
         inkscape:connector-curvature="0"
         id="path4732"
         d="m 67.604053,121.67124 a 38.837073,38.837073 0 0 0 -38.83664,38.83724 38.837073,38.837073 0 0 0 38.83664,38.83664 38.837073,38.837073 0 0 0 38.837237,-38.83664 38.837073,38.837073 0 0 0 -38.837237,-38.83724 z m 0,7.09198 a 31.745085,31.745085 0 0 1 31.74526,31.74526 31.745085,31.745085 0 0 1 -31.74526,31.74464 31.745085,31.745085 0 0 1 -31.74465,-31.74464 31.745085,31.745085 0 0 1 31.74465,-31.74526 z"
         style="fill:#2185df;fill-opacity:1;stroke-width:0.31519943" />
    </g>
  </g>
</svg>
