<?xml version="1.0" encoding="UTF-8" standalone="no"?>
<!-- Created with Inkscape (http://www.inkscape.org/) -->

<svg
   xmlns:dc="http://purl.org/dc/elements/1.1/"
   xmlns:cc="http://creativecommons.org/ns#"
   xmlns:rdf="http://www.w3.org/1999/02/22-rdf-syntax-ns#"
   xmlns:svg="http://www.w3.org/2000/svg"
   xmlns="http://www.w3.org/2000/svg"
   xmlns:sodipodi="http://sodipodi.sourceforge.net/DTD/sodipodi-0.dtd"
   xmlns:inkscape="http://www.inkscape.org/namespaces/inkscape"
   width="77.673874mm"
   height="89.886551mm"
   viewBox="0 0 77.673874 89.886551"
   version="1.1"
   id="svg8"
   inkscape:version="0.92.3 (2405546, 2018-03-11)"
   sodipodi:docname="logo_text.svg">
  <defs
     id="defs2" />
  <sodipodi:namedview
     id="base"
     pagecolor="#ffffff"
     bordercolor="#666666"
     borderopacity="1.0"
     inkscape:pageopacity="0.0"
     inkscape:pageshadow="2"
     inkscape:zoom="1.979899"
     inkscape:cx="106.95084"
     inkscape:cy="177.67379"
     inkscape:document-units="mm"
     inkscape:current-layer="g117"
     showgrid="false"
     inkscape:window-width="1920"
     inkscape:window-height="1017"
     inkscape:window-x="-8"
     inkscape:window-y="-8"
     inkscape:window-maximized="1"
     fit-margin-top="0"
     fit-margin-left="0"
     fit-margin-right="0"
     fit-margin-bottom="0" />
  <metadata
     id="metadata5">
    <rdf:RDF>
      <cc:Work
         rdf:about="">
        <dc:format>image/svg+xml</dc:format>
        <dc:type
           rdf:resource="http://purl.org/dc/dcmitype/StillImage" />
        <dc:title />
      </cc:Work>
    </rdf:RDF>
  </metadata>
  <g
     inkscape:label="Layer 1"
     inkscape:groupmode="layer"
     id="layer1"
     transform="translate(-20.451937,-114.3007)">
    <g
       id="g117"
       transform="translate(-8.3154762,-7.3705357)">
      <path
         sodipodi:nodetypes="ccsscccccsccsccccccsccsccsccsc"
         inkscape:connector-curvature="0"
         id="path4738"
         style="font-style:normal;font-variant:normal;font-weight:bold;font-stretch:normal;font-size:45.86111069px;line-height:1.25;font-family:Rubik;-inkscape-font-specification:'Rubik, Bold';font-variant-ligatures:normal;font-variant-caps:normal;font-variant-numeric:normal;font-feature-settings:normal;text-align:start;letter-spacing:0px;word-spacing:0px;writing-mode:lr-tb;text-anchor:start;fill:#2185df;fill-opacity:1;stroke:none;stroke-width:0.37167326"
         d="m 46.369253,185.42938 c 0,0.47244 -0.171796,0.88046 -0.515388,1.22404 -0.343593,0.3436 -0.751607,0.51539 -1.224043,0.51539 h -4.413178 c -0.472436,0 -0.88045,-0.17179 -1.224042,-0.51539 -0.343592,-0.34358 -0.515389,-0.7516 -0.515389,-1.22404 -16.933433,-21.44245 -7.912561,-34.09412 -2.233084,-38.46289 1.823072,-1.75147 1.264591,-0.94719 3.269045,-2.19755 0.644237,-0.51539 1.524687,-0.94488 2.64135,-1.28847 1.15962,-0.38655 2.619885,-0.57982 4.380795,-0.57982 4.080151,0 7.451639,1.24552 10.114463,3.73655 2.705781,2.49105 4.144572,6.16318 4.316374,11.0164 0.04299,0.42949 0.06448,1.28847 0.06448,2.57694 0,1.33142 -0.02149,2.21187 -0.06448,2.64135 -0.171802,4.85323 -1.589115,8.54683 -4.251938,11.08082 -2.662834,2.49104 -6.0558,3.73656 -10.178899,3.73656 z m 3.065118,-26.93827 c -0.128843,-1.67501 -0.665706,-3.0279 -1.610588,-4.05866 -0.901923,-1.03078 -2.297762,-1.54617 -4.187516,-1.54617 -1.760909,0 -3.113799,0.49391 -4.058671,1.48174 -0.901925,0.98781 -1.460261,2.21185 -1.67501,3.67212 -0.08588,0.85898 -0.128815,1.61059 -0.128815,2.25482 0,0.64423 0.04294,1.39584 0.128815,2.25483 0.171801,1.4173 0.730138,2.64134 1.67501,3.67212 0.944872,0.98783 2.297762,1.48174 4.058671,1.48174 1.889754,0 3.285593,-0.51539 4.187516,-1.54616 0.944882,-1.03077 1.481745,-2.38366 1.610588,-4.05867 0.08588,-0.85898 0.128815,-1.46027 0.128815,-1.80386 0,-0.34359 -0.04294,-0.94488 -0.128815,-1.80385 z" />
      <path
         style="font-style:normal;font-variant:normal;font-weight:bold;font-stretch:normal;font-size:45.86111069px;line-height:1.25;font-family:Rubik;-inkscape-font-specification:'Rubik, Bold';font-variant-ligatures:normal;font-variant-caps:normal;font-variant-numeric:normal;font-feature-settings:normal;text-align:start;letter-spacing:0px;word-spacing:0px;writing-mode:lr-tb;text-anchor:start;fill:#2185df;fill-opacity:1;stroke:none;stroke-width:0.26458332"
         d="m 72.667295,195.72608 c 0,0.33632 -0.122297,0.62677 -0.36689,0.87136 -0.244594,0.2446 -0.535047,0.36689 -0.87136,0.36689 h -7.649387 c -0.336313,0 -0.626767,-0.12229 -0.87136,-0.36689 -0.244593,-0.24459 -0.36689,-0.53504 -0.36689,-0.87136 v -34.79552 c 0,-0.33632 0.122297,-0.62677 0.36689,-0.87136 0.244593,-0.2446 0.535047,-0.36689 0.87136,-0.36689 h 7.649387 c 0.336313,0 0.626766,0.12229 0.87136,0.36689 0.244593,0.24459 0.36689,0.53504 0.36689,0.87136 z"
         id="path4740"
         inkscape:connector-curvature="0" />
      <circle
         style="fill:#2185df;fill-opacity:1;stroke-width:0.26458332"
         id="path4752"
         cx="67.604355"
         cy="143.64131"
         r="7.6505904" />
      <path
         d="m 88.864696,135.887 c 0,-0.47244 0.171796,-0.88046 0.515388,-1.22404 0.343593,-0.3436 0.751607,-0.51539 1.224043,-0.51539 h 4.413178 c 0.472436,0 0.88045,0.17179 1.224042,0.51539 0.343592,0.34358 0.515389,0.7516 0.515389,1.22404 16.933434,21.44245 7.912564,34.09412 2.233084,38.46289 -1.823072,1.75147 -1.264591,0.94719 -3.269045,2.19755 -0.644237,0.51539 -1.524687,0.94488 -2.64135,1.28847 -1.15962,0.38655 -2.619885,0.57982 -4.380795,0.57982 -4.080151,0 -7.451639,-1.24552 -10.114463,-3.73655 -2.705781,-2.49105 -4.144572,-6.16318 -4.316374,-11.0164 -0.04299,-0.42949 -0.06448,-1.28847 -0.06448,-2.57694 0,-1.33142 0.02149,-2.21187 0.06448,-2.64135 0.171802,-4.85323 1.589115,-8.54683 4.251938,-11.08082 2.662834,-2.49104 6.0558,-3.73656 10.178899,-3.73656 z m -3.065118,26.93827 c 0.128843,1.67501 0.665706,3.0279 1.610588,4.05866 0.901923,1.03078 2.297762,1.54617 4.187516,1.54617 1.760909,0 3.113799,-0.49391 4.058671,-1.48174 0.901925,-0.98781 1.460261,-2.21185 1.67501,-3.67212 0.08588,-0.85898 0.128815,-1.61059 0.128815,-2.25482 0,-0.64423 -0.04294,-1.39584 -0.128815,-2.25483 -0.171801,-1.4173 -0.730138,-2.64134 -1.67501,-3.67212 -0.944872,-0.98783 -2.297762,-1.48174 -4.058671,-1.48174 -1.889754,0 -3.285593,0.51539 -4.187516,1.54616 -0.944882,1.03077 -1.481745,2.38366 -1.610588,4.05867 -0.08588,0.85898 -0.128815,1.46027 -0.128815,1.80386 0,0.34359 0.04294,0.94488 0.128815,1.80385 z"
         style="font-style:normal;font-variant:normal;font-weight:bold;font-stretch:normal;font-size:45.86111069px;line-height:1.25;font-family:Rubik;-inkscape-font-specification:'Rubik, Bold';font-variant-ligatures:normal;font-variant-caps:normal;font-variant-numeric:normal;font-feature-settings:normal;text-align:start;letter-spacing:0px;word-spacing:0px;writing-mode:lr-tb;text-anchor:start;fill:#2185df;fill-opacity:1;stroke:none;stroke-width:0.37167326"
         id="path4754"
         inkscape:connector-curvature="0"
         sodipodi:nodetypes="ccsscccccsccsccccccsccsccsccsc" />
      <path
         inkscape:connector-curvature="0"
         id="path4732"
         d="m 67.604053,121.67124 a 38.837073,38.837073 0 0 0 -38.83664,38.83724 38.837073,38.837073 0 0 0 38.83664,38.83664 38.837073,38.837073 0 0 0 38.837237,-38.83664 38.837073,38.837073 0 0 0 -38.837237,-38.83724 z m 0,7.09198 a 31.745085,31.745085 0 0 1 31.74526,31.74526 31.745085,31.745085 0 0 1 -31.74526,31.74464 31.745085,31.745085 0 0 1 -31.74465,-31.74464 31.745085,31.745085 0 0 1 31.74465,-31.74526 z"
         style="fill:#2185df;fill-opacity:1;stroke-width:0.31519943" />
      <g
         aria-label="TUNER"
         transform="scale(0.89564596,1.1165126)"
         style="font-style:normal;font-weight:normal;font-size:14.26850128px;line-height:1.25;font-family:sans-serif;letter-spacing:0px;word-spacing:0px;fill:#80808f;fill-opacity:1;stroke:none;stroke-width:0.35671252"
         id="text828">
        <path
           d="m 42.560142,179.49711 h 9.558782 q 0.278681,0 0.390154,0.21598 v 0.52949 q 0,0.75941 -0.745474,1.31677 -0.606132,0.32049 -0.961451,0.32049 h -2.09708 q -0.606132,0 -0.606132,0.49466 v 6.68139 q 0,0.42499 -0.529496,0.42499 H 45.79285 q -0.571298,0 -0.571298,-0.35532 v -6.7859 q 0,-0.45982 -0.675803,-0.45982 h -3.441718 q -0.285649,0 -0.285649,-0.32049 v -0.64096 q 0,-0.92662 1.281936,-1.38644 0.229912,-0.0348 0.459824,-0.0348 z"
           style="font-style:normal;font-variant:normal;font-weight:normal;font-stretch:normal;font-size:14.26850128px;font-family:Technopollas;-inkscape-font-specification:'Technopollas, Normal';font-variant-ligatures:normal;font-variant-caps:normal;font-variant-numeric:normal;font-feature-settings:normal;text-align:start;writing-mode:lr-tb;text-anchor:start;fill:#80808f;fill-opacity:1;stroke-width:0.35671252"
           id="path820" />
        <path
           d="m 55.595478,179.49711 h 0.675803 q 1.226199,0 1.637255,1.06596 0.13934,0.41105 0.13934,0.64097 v 5.26011 q 0,0.634 0.459825,0.634 h 5.615436 q 0.606132,0 0.606132,-0.634 v -5.5806 q 0,-0.89875 1.274969,-1.3516 0.236879,-0.0348 0.466792,-0.0348 h 0.599165 q 0.501627,0 0.501627,0.39015 v 7.81703 q 0,1.268 -1.386441,1.74176 -0.271715,0.0348 -0.606133,0.0348 h -8.416186 q -1.281936,0 -1.67209,-0.84998 -0.320484,-0.31352 -0.320484,-1.21226 v -7.39203 q 0,-0.5295 0.42499,-0.5295 z"
           style="font-style:normal;font-variant:normal;font-weight:normal;font-stretch:normal;font-size:14.26850128px;font-family:Technopollas;-inkscape-font-specification:'Technopollas, Normal';font-variant-ligatures:normal;font-variant-caps:normal;font-variant-numeric:normal;font-feature-settings:normal;text-align:start;writing-mode:lr-tb;text-anchor:start;fill:#80808f;fill-opacity:1;stroke-width:0.35671252"
           id="path822" />
        <path
           d="m 70.713957,179.51801 h 2.111014 q 0.515561,0 1.755694,1.47005 2.243388,2.41756 3.76917,3.94334 0.125407,0.10451 0.250813,0.10451 0.250814,0 0.250814,-0.39016 v -3.33721 q 0,-1.12169 0.606133,-1.47004 0.654901,-0.32049 1.184397,-0.32049 h 0.606132 q 0.431957,0 0.431957,0.53646 v 9.02929 q 0,0.39712 -0.320484,0.39712 h -2.403629 q -0.369254,0 -1.10776,-0.89875 -0.661869,-0.62006 -2.870421,-3.04459 -1.435211,-1.47005 -1.539716,-1.47005 h -0.111473 q -0.174176,0.0906 -0.174176,0.28565 v 3.12123 q -0.0418,1.63029 -0.445891,1.80447 -0.397121,0.16721 -1.351606,0.20204 h -0.787276 q -0.285648,0 -0.285648,-0.28565 v -2.75895 q 0,-1.3307 -0.03484,-2.0065 0.03484,-0.68277 0.03484,-2.00651 v -2.58477 q 0,-0.32049 0.431956,-0.32049 z"
           style="font-style:normal;font-variant:normal;font-weight:normal;font-stretch:normal;font-size:14.26850128px;font-family:Technopollas;-inkscape-font-specification:'Technopollas, Normal';font-variant-ligatures:normal;font-variant-caps:normal;font-variant-numeric:normal;font-feature-settings:normal;text-align:start;writing-mode:lr-tb;text-anchor:start;fill:#80808f;fill-opacity:1;stroke-width:0.35671252"
           id="path824" />
        <path
           d="m 85.804571,179.51801 h 9.886232 q 0.390154,0 0.390154,0.42499 0,1.49095 -1.351606,1.88807 h -10.10221 q -0.320484,0 -0.320484,-0.39016 v -0.0697 q 0,-1.3098 1.100792,-1.78356 0.139341,-0.0697 0.397122,-0.0697 z m 0.529495,3.91548 h 7.155152 q 0.390154,0 0.390154,0.32048 v 0.13934 q 0,0.96842 -1.142595,1.46308 -0.132373,0.0348 -0.278681,0.0348 h -4.772424 q -0.49466,0 -0.49466,0.49466 v 0.71064 q 0,0.46679 0.390154,0.46679 h 6.402712 q 1.699958,0 2.062244,1.42127 0,0.0836 0.03484,0.53647 0,0.45982 -0.529495,0.45982 H 86.58488 q -1.34464,0 -1.637255,-0.39015 -0.640968,-0.51556 -0.640968,-1.49792 v -2.38273 q 0,-1.21226 1.17743,-1.70692 0.452858,-0.0697 0.849979,-0.0697 z"
           style="font-style:normal;font-variant:normal;font-weight:normal;font-stretch:normal;font-size:14.26850128px;font-family:Technopollas;-inkscape-font-specification:'Technopollas, Normal';font-variant-ligatures:normal;font-variant-caps:normal;font-variant-numeric:normal;font-feature-settings:normal;text-align:start;writing-mode:lr-tb;text-anchor:start;fill:#80808f;fill-opacity:1;stroke-width:0.35671252"
           id="path826" />
        <path
           d="m 100.76281,179.49711 h 8.7297 q 1.2889,0 1.68603,1.11473 v 1.79749 q 0,2.15979 -0.32049,2.43847 -0.28565,0.57826 -1.36554,0.57826 -0.29261,0.11148 -0.29261,0.32049 1.14259,2.32699 1.76266,3.37204 l 0.0348,0.18115 q -0.0697,0.16721 -0.13934,0.18114 h -2.48027 q -0.36925,0 -1.04505,-1.43521 -1.19833,-2.25035 -1.43521,-2.5151 -0.18115,-0.10451 -0.35532,-0.10451 h -3.1282 q -0.43196,0 -0.43196,0.82211 v 2.94706 q 0,0.28565 -0.28565,0.28565 h -2.480265 q -0.320484,0 -0.320484,-0.39712 v -3.91548 q 0,-1.10776 0.933584,-1.53971 0.397125,-0.21598 0.898745,-0.21598 h 1.25407 q 2.06921,0 5.89412,-0.0348 0.27171,0 0.32048,-0.43195 v -0.64794 q 0,-0.46679 -0.6131,-0.46679 h -8.290777 q -0.397122,0 -0.397122,-0.32048 v -0.11148 q 0,-1.14259 0.829078,-1.65119 0.620071,-0.25081 1.038091,-0.25081 z"
           style="font-style:normal;font-variant:normal;font-weight:normal;font-stretch:normal;font-size:14.26850128px;font-family:Technopollas;-inkscape-font-specification:'Technopollas, Normal';font-variant-ligatures:normal;font-variant-caps:normal;font-variant-numeric:normal;font-feature-settings:normal;text-align:start;writing-mode:lr-tb;text-anchor:start;fill:#80808f;fill-opacity:1;stroke-width:0.35671252"
           id="path828" />
      </g>
    </g>
  </g>
</svg>
