<?xml version="1.0" standalone="no"?>
<!DOCTYPE svg PUBLIC "-//W3C//DTD SVG 20010904//EN"
 "http://www.w3.org/TR/2001/REC-SVG-20010904/DTD/svg10.dtd">
<svg version="1.0" xmlns="http://www.w3.org/2000/svg"
 width="700.000000pt" height="700.000000pt" viewBox="0 0 700.000000 700.000000"
 preserveAspectRatio="xMidYMid meet">
<metadata>
Created by potrace 1.11, written by Peter Selinger 2001-2013
</metadata>
<g transform="translate(0.000000,700.000000) scale(0.100000,-0.100000)"
fill="#000000" stroke="none">
<path d="M3278 6996 c-1 -2 -42 -6 -89 -10 -47 -4 -95 -8 -105 -10 -10 -2 -48
-7 -84 -12 -36 -4 -67 -8 -70 -9 -3 -1 -25 -5 -50 -9 -25 -4 -101 -21 -170
-38 -69 -16 -135 -31 -147 -34 -30 -6 -260 -82 -298 -99 -16 -7 -59 -24 -95
-38 -93 -36 -290 -132 -390 -190 -47 -28 -94 -55 -105 -61 -22 -12 -164 -106
-180 -118 -5 -5 -50 -38 -100 -75 -49 -37 -95 -72 -101 -77 -6 -6 -41 -36 -77
-66 -166 -137 -424 -422 -574 -635 -122 -173 -275 -444 -342 -605 -12 -30 -31
-73 -41 -95 -28 -61 -115 -327 -144 -442 -29 -114 -60 -270 -71 -353 -4 -30
-9 -63 -10 -72 -3 -16 -11 -86 -20 -188 -3 -25 -6 -166 -9 -315 -4 -251 3
-376 28 -510 3 -16 8 -43 11 -60 29 -155 171 -596 245 -761 157 -348 331 -627
558 -893 81 -95 306 -319 392 -390 36 -30 67 -57 70 -60 18 -22 392 -281 406
-281 2 0 22 -11 44 -25 186 -117 628 -299 855 -351 6 -1 48 -11 95 -22 115
-28 210 -46 300 -57 25 -3 56 -7 69 -10 141 -27 661 -26 851 1 718 104 1298
360 1825 803 140 118 397 380 453 463 9 13 19 25 22 28 28 21 218 298 288 420
50 86 157 299 186 370 15 36 34 79 41 96 26 57 115 335 141 437 29 120 60 280
69 357 4 30 8 57 10 60 2 3 6 48 10 100 4 52 9 111 11 130 8 87 11 531 3 585
-5 33 -11 80 -14 105 -4 25 -8 52 -10 60 -2 8 -7 31 -10 50 -9 54 -42 181 -91
349 -197 676 -540 1223 -1059 1690 -122 109 -389 306 -500 367 -11 6 -49 28
-85 49 -246 141 -558 268 -850 344 -116 31 -359 76 -460 87 -30 3 -68 8 -85
10 -34 5 -541 14 -547 10z m522 -650 c14 -2 48 -7 75 -11 76 -9 118 -16 135
-20 8 -2 31 -7 50 -10 118 -20 345 -87 494 -147 155 -61 454 -216 464 -240 2
-5 8 -8 14 -8 15 0 188 -125 291 -210 l88 -73 -6 -196 c-2 -108 -6 -243 -7
-299 -1 -65 -5 -105 -12 -107 -6 -2 -54 -6 -106 -10 -119 -7 -152 -12 -248
-36 -42 -11 -82 -21 -89 -22 -7 -2 -16 -6 -19 -10 -4 -4 -15 -7 -24 -7 -23 0
-174 -74 -250 -123 -84 -54 -100 -68 -185 -152 -213 -211 -333 -506 -362 -895
-9 -118 -9 -501 0 -632 25 -376 147 -678 355 -886 276 -274 664 -399 1110
-358 109 10 267 51 336 88 24 13 22 9 -46 -92 -266 -396 -647 -728 -1091 -952
-229 -115 -567 -227 -767 -254 l-46 -6 0 1405 c0 1133 -2 1410 -13 1429 -7 14
-27 33 -44 43 -29 17 -59 19 -391 19 -315 1 -365 -1 -397 -16 -21 -9 -43 -27
-51 -40 -10 -19 -13 -286 -14 -1428 -1 -773 -2 -1408 -3 -1411 -1 -7 -192 33
-306 64 -236 66 -467 164 -679 289 -87 52 -242 154 -256 168 -3 3 -25 21 -50
40 -25 19 -71 56 -102 82 l-57 49 4 182 c2 100 5 230 7 290 l2 107 41 1 c361
12 689 144 899 363 170 178 294 439 331 696 3 25 8 56 10 70 26 171 26 704 0
885 -46 322 -159 571 -344 756 -176 176 -413 300 -646 338 -146 24 -184 27
-305 26 -208 -3 -329 -24 -470 -84 -38 -16 -67 -24 -63 -18 3 7 35 55 69 107
306 463 789 858 1299 1062 255 102 551 175 790 194 44 3 82 8 84 10 6 6 470
-3 501 -10z m-2315 -2171 c42 -9 115 -36 146 -55 105 -62 197 -208 223 -355
24 -133 25 -330 2 -475 -24 -153 -110 -298 -218 -366 -135 -85 -399 -95 -547
-19 -119 60 -212 186 -249 337 -29 117 -32 390 -6 533 7 41 54 157 70 176 8 8
14 19 14 23 0 16 57 81 102 117 57 45 140 78 223 88 63 8 188 6 240 -4z m4370
-83 c79 -29 141 -73 191 -136 103 -128 138 -260 135 -516 -1 -171 -9 -226 -44
-324 -81 -221 -232 -326 -472 -327 -106 0 -151 6 -222 31 -239 83 -351 368
-309 785 17 168 68 295 154 383 94 97 197 131 382 128 99 -2 137 -7 185 -24z"/>
<path d="M3380 5700 c-208 -37 -404 -184 -494 -373 -169 -350 -33 -752 312
-926 182 -92 435 -90 614 5 238 127 379 366 372 629 -8 325 -228 591 -545 660
-66 14 -195 17 -259 5z"/>
</g>
</svg>
